<?xml version="1.0" encoding="UTF-8"?>
<svg version="1.1" xmlns="http://www.w3.org/2000/svg" width="1024" height="1024">
<path d="M0 0 C0.86044922 0.57041016 0.86044922 0.57041016 1.73828125 1.15234375 C8.04558967 5.8006579 10.47466156 12.75859458 11.74609375 20.23828125 C13.30524049 37.19700038 6.43961407 51.8200137 -3.6875 65 C-21.22210935 86.07557901 -21.22210935 86.07557901 -32.75 88.0625 C-35.82014139 88.23217966 -36.80747371 88.10800255 -39.5625 86.5625 C-41.62487978 82.88608386 -42.12516253 80.01446878 -41 76 C-38.71484262 72.331396 -35.88279135 69.20932111 -33 66 C-22.49810862 54.07356184 -12.61979267 41.31267346 -11.5625 24.8125 C-12.08257772 20.28039417 -13.42601507 16.76703634 -16 13 C-20.61122218 10.69438891 -26.11365978 11.51094883 -30.953125 12.765625 C-45.29798892 17.88364178 -58.15218666 26.58029957 -70 36 C-70.825 36.63292969 -71.65 37.26585937 -72.5 37.91796875 C-110.04927605 67.10290286 -139.88448488 111.07257525 -149 158 C-149.17740723 158.81033691 -149.35481445 159.62067383 -149.53759766 160.45556641 C-150.33882914 164.86445473 -150.26779674 169.27967429 -150.3125 173.75 C-150.35600586 175.17699219 -150.35600586 175.17699219 -150.40039062 176.6328125 C-150.47356445 184.85079641 -148.2698215 190.46174883 -143.875 197.3125 C-136.24252808 204.44720201 -125.73045801 205.37268641 -115.6953125 205.28125 C-93.29169839 203.57611235 -72.11477688 191.92388628 -55 178 C-54.44070801 177.54753906 -53.88141602 177.09507812 -53.30517578 176.62890625 C-29.11828804 156.93243933 -12.03082163 130.82390888 5 105 C6.12921875 103.43572266 6.12921875 103.43572266 7.28125 101.83984375 C9.03064656 98.94936352 9.39604435 97.99261308 9 94.75 C8.73456474 88.16941744 10.76269629 82.68830169 14.9765625 77.625 C21.28940744 71.19737607 21.28940744 71.19737607 26.25 70.625 C31.07479235 71.10747923 32.79065117 72.40858584 36 76 C36.99773929 79.84842297 37.08610925 82.52639912 36.375 86.4375 C37.14598737 90.832128 38.11617379 91.28441925 41.625 93.875 C43.73138756 95.27834652 45.85842684 96.65095797 48 98 C49.87960652 99.20420058 51.75696716 100.41185232 53.63427734 101.61962891 C54.85664272 102.40116217 56.08341306 103.17585788 57.31494141 103.94287109 C63.00294826 107.51102333 63.00294826 107.51102333 65 110 C65.77051562 116.55469386 62.7983129 122.16748463 59.5625 127.625 C59.11656494 128.40278809 58.67062988 129.18057617 58.21118164 129.98193359 C54.93126589 135.62520798 51.3750461 141.05313127 47.69726562 146.44238281 C36.0571026 162.48753102 36.0571026 162.48753102 32.3125 181.0625 C32.6528125 182.5165625 32.6528125 182.5165625 33 184 C37.21540873 185.03234499 39.34886458 185.31064745 43.32421875 183.4140625 C47.3094116 180.98022748 50.50057604 177.95393754 53.75 174.625 C54.35561768 174.01068115 54.96123535 173.3963623 55.58520508 172.76342773 C61.06503619 167.10773462 65.96660454 161.1056707 70.66455078 154.79296875 C72.03282873 152.95592428 73.41985529 151.13411069 74.80859375 149.3125 C79.47501141 143.1309488 83.78497183 136.88020884 87.6875 130.1875 C91.30139056 123.99157765 95.28395035 118.4261884 100 113 C100.70898438 112.16984375 101.41796875 111.3396875 102.1484375 110.484375 C113.44063266 97.56768861 127.25108918 84.73278952 144.875 82.0625 C152.70871632 81.5821306 160.33586139 83.21223926 166.5625 88.125 C170.38628535 91.83749014 171.8817217 95.86290904 173 101 C173.61488281 100.25943359 173.61488281 100.25943359 174.2421875 99.50390625 C174.78101563 98.86324219 175.31984375 98.22257813 175.875 97.5625 C176.40867187 96.92441406 176.94234375 96.28632812 177.4921875 95.62890625 C179.74879081 93.19107314 180.95288197 93.00622314 184.3125 92.5625 C188 93 188 93 191 95.5625 C193.4780155 99.82158915 193.04505149 101.27329633 192 106 C190.66821289 109.15527344 190.66821289 109.15527344 188.97265625 112.359375 C188.66806488 112.9418399 188.36347351 113.52430481 188.0496521 114.12442017 C187.06345446 116.00480531 186.06300419 117.87719475 185.0625 119.75 C184.37599788 121.05495649 183.69053979 122.36046272 183.00610352 123.66650391 C180.03310674 129.32851286 177.0203523 134.96888379 173.9921875 140.6015625 C163.54479223 158.78918309 163.54479223 158.78918309 160 179 C161.03625992 180.23850442 161.03625992 180.23850442 163.26953125 180.3046875 C166.87311861 179.90257046 168.08304921 178.6132191 170.6875 176.125 C171.55632812 175.3 172.42515625 174.475 173.3203125 173.625 C174.20460938 172.75875 175.08890625 171.8925 176 171 C176.84304688 170.195625 177.68609375 169.39125 178.5546875 168.5625 C183.58358633 163.67459833 188.16290032 158.57335312 192.53125 153.08984375 C194.33969107 150.82643096 196.1678575 148.59604128 198.03125 146.37890625 C214.56538124 126.60625926 227.24708798 104.32678377 240.00390625 82.015625 C246.64742375 70.39860878 253.32523036 58.9651347 261 48 C262.13578602 46.35832839 263.2711748 44.71638191 264.40625 43.07421875 C267.90573836 38.02677122 271.44291517 33.00698354 275 28 C275.46921875 27.33645508 275.9384375 26.67291016 276.421875 25.98925781 C277.62411438 24.29725073 278.84263657 22.61684532 280.0625 20.9375 C280.71347656 20.03902344 281.36445312 19.14054688 282.03515625 18.21484375 C285.14571184 14.7085117 287.79101308 13.15387106 292.4375 12.5625 C296.63446239 13.07791643 298.7393054 14.36039009 302 17 C304.08370446 21.16740892 303.64015316 25.96314904 302.26953125 30.32421875 C299.53693768 36.29251879 295.5881674 41.27018673 291.49829102 46.35009766 C271.10132939 71.69392021 255.66604405 100.61396001 240 129 C244.68969598 133.95331795 249.32274885 135.20781569 256 135.4375 C270.1940914 135.03195453 281.76953188 129.54542569 294 123 C297.97697265 120.90038542 300.46390114 119.59975598 305 120 C305.35191406 118.80632812 305.70382812 117.61265625 306.06640625 116.3828125 C308.12012483 110.22767941 311.05418261 104.5131719 313.98803711 98.74267578 C314.93774742 96.8745133 315.87878269 95.00218267 316.81835938 93.12890625 C319.73553258 87.33267394 322.69361187 81.58522707 326 76 C325.43079834 75.98541748 324.86159668 75.97083496 324.27514648 75.95581055 C321.66196172 75.88070835 319.04996901 75.78425811 316.4375 75.6875 C315.54224609 75.66494141 314.64699219 75.64238281 313.72460938 75.61914062 C308.11556191 75.39313505 303.97283953 74.65482269 299 72 C296.89167496 69.45244058 296.98429604 68.25649798 297.1875 64.9375 C298.01917127 61.93068849 298.52228764 60.81063596 301 59 C304.64004542 57.78665153 307.29212012 58.08613818 311.125 58.31640625 C325.83788157 59.49748186 325.83788157 59.49748186 339.46826172 55.43212891 C343.1816167 51.3780072 345.10988921 46.53465062 347.00927734 41.43457031 C348.59294836 37.54290758 350.87104361 34.19506833 353.25 30.75 C353.87624268 29.82247925 353.87624268 29.82247925 354.51513672 28.8762207 C361.41736632 18.81959731 361.41736632 18.81959731 367.25390625 17.484375 C371.65168416 17.16559044 373.47174246 17.58179612 377 20.375 C379.65511937 23.85984418 380.47052675 26.09202615 380.40625 30.53515625 C379.18918517 37.91946304 374.32969897 44.52007438 370.37524414 50.71362305 C369.74356827 51.70371872 369.1118924 52.69381439 368.46107483 53.71391296 C367.97892014 54.46832169 367.49676544 55.22273041 367 56 C367.77816574 55.99333817 368.55633148 55.98667633 369.358078 55.97981262 C376.69985755 55.91964371 384.04151715 55.87399639 391.38347912 55.84456348 C395.15785956 55.82892289 398.93203586 55.80771439 402.70629883 55.77368164 C406.35026868 55.74103024 409.99404247 55.7231349 413.63814735 55.71536827 C415.02679848 55.70983508 416.41543916 55.69902997 417.80400658 55.68280983 C419.75228745 55.66096144 421.70076658 55.65977396 423.64916992 55.65942383 C425.31129768 55.64943108 425.31129768 55.64943108 427.00700378 55.63923645 C430.42443179 56.05115928 432.25745641 56.94905093 435 59 C437 62 437 62 436.9375 65 C436 68 436 68 433.8125 69.8125 C428.65440354 71.99036295 423.65709318 72.1074882 418.11523438 72.00805664 C416.74574474 71.98911505 415.37623595 71.97152272 414.00671387 71.95509338 C413.28833847 71.94607058 412.56996307 71.93704777 411.82981873 71.92775154 C407.17036471 71.89108699 402.5110837 71.95500254 397.85198212 72.01209354 C393.77593265 72.05668645 389.70914178 72.05836593 385.63378906 71.96264648 C367.99299321 70.97631126 367.99299321 70.97631126 352.23718262 77.22744751 C347.55926347 82.85241191 344.76362817 89.18438793 342.18017578 95.97964478 C340.56182265 100.12140181 338.44286649 103.88785296 336.265625 107.75390625 C334.90430222 110.34518853 333.57786141 112.95394133 332.25 115.5625 C331.72087509 116.59546204 331.72087509 116.59546204 331.18106079 117.64929199 C313.46060252 148.24519708 313.46060252 148.24519708 309.7421875 181.6875 C311.21646754 184.39797759 312.0798506 185.08912771 315 186 C326.42786349 186.22629433 336.278073 175.33605981 343.9375 168.078125 C348.37951916 163.72196961 352.34245324 158.94990422 356.30859375 154.1640625 C362.949003 146.25779172 362.949003 146.25779172 367.3125 145.1875 C368.199375 145.125625 369.08625 145.06375 370 145 C372.6019824 147.49790311 372.99230519 148.85636362 373.1875 152.5 C371.21174328 163.73061716 360.65145596 173.07950551 353 181 C352.19691406 181.86625 351.39382813 182.7325 350.56640625 183.625 C341.77076406 192.86836782 331.39707192 201.30873701 319 205 C318.39027344 205.18949219 317.78054688 205.37898437 317.15234375 205.57421875 C309.38091125 207.11158017 300.88160093 207.09967715 294 203 C293.13375 202.484375 292.2675 201.96875 291.375 201.4375 C286.53654131 196.47171345 283.09041051 189.35907823 282.9453125 182.36328125 C283.77986125 168.19409493 288.66983406 155.04189539 294 142 C293.33097656 142.37511719 292.66195313 142.75023437 291.97265625 143.13671875 C278.94973699 150.07644888 265.78208051 153.74230921 251 154 C251.32484375 155.11568359 251.32484375 155.11568359 251.65625 156.25390625 C256.01705542 173.35391641 255.40486211 191.23798826 250 208 C249.75862305 208.75732422 249.51724609 209.51464844 249.26855469 210.29492188 C244.07738043 226.18840381 237.26647639 241.47037436 226 254 C225.12296136 255.01889771 224.24670405 256.03846831 223.37109375 257.05859375 C214.33931021 267.42161052 203.42126244 276.0296699 189.1953125 277.23828125 C182.93577971 277.38959311 178.81074188 277.45873638 174 273 C167.77482594 266.77482594 166.91752614 260.9342918 166.6875 252.5 C167.20327932 229.11800395 176.81790634 205.27558286 186 184 C185.47792969 184.49628906 184.95585938 184.99257813 184.41796875 185.50390625 C174.45374602 194.70030796 163.83873626 202.7641288 149.80859375 202.34375 C145.87224664 201.86197177 143.83505489 200.76417852 141 198 C136.69084765 192.29328472 136.2545694 187.03884379 136 180 C132.63667732 182.63242393 129.48353083 185.38590659 126.375 188.3125 C115.85517069 197.800667 105.60505051 203.77153813 91.2265625 203.41796875 C84.87423373 202.59508839 79.94833644 199.99704485 75.5 195.4375 C73.15783697 191.63148507 71.77142603 188.74282832 71.375 184.25 C71.26285156 183.05117188 71.26285156 183.05117188 71.1484375 181.828125 C71.07496094 180.92320312 71.07496094 180.92320312 71 180 C69.92685547 181.14275391 69.92685547 181.14275391 68.83203125 182.30859375 C58.15372973 193.45802346 46.26434983 204.18823831 30.12890625 205.1171875 C22.84537997 204.84439625 16.95537897 202.51640453 11.9375 197.1875 C8.13697004 192.23860847 6.75338904 187.72692681 7 181.5 C9.48722458 163.2147995 21.66316051 144.21195879 31.66015625 129.08203125 C34.24493166 125.06545605 36 121.70582735 36 116.8125 C34.70343412 113.16590847 33.30194731 111.98116839 30 110 C28.00828695 109.62027611 26.00808837 109.28052133 24 109 C23.51756836 109.72888428 23.03513672 110.45776855 22.53808594 111.20874023 C8.04455882 133.08514464 -6.23989924 154.5776238 -24 174 C-24.87785156 174.98226562 -25.75570312 175.96453125 -26.66015625 176.9765625 C-47.54583911 200.27910712 -81.64401218 227.03444011 -114.48852539 229.16113281 C-134.66173055 229.48580684 -150.5199417 227.9749012 -165.77734375 213.39453125 C-175.02012579 203.43701739 -178.4541897 189.37235242 -179 176 C-179.07476562 174.81792969 -179.14953125 173.63585937 -179.2265625 172.41796875 C-181.27553405 126.52873805 -150.72837713 79.27209546 -121.35546875 46.56640625 C-94.95756559 18.01901558 -40.6213218 -28.0580264 0 0 Z M132 113 C131.25878906 113.6084375 130.51757812 114.216875 129.75390625 114.84375 C113.71800494 128.40617607 99.56556731 149.24621268 95 170 C94.86191799 171.70478168 94.78062848 173.41490962 94.75 175.125 C94.71132813 176.42824219 94.71132813 176.42824219 94.671875 177.7578125 C94.78015625 178.49773437 94.8884375 179.23765625 95 180 C98.70773734 182.47182489 100.27912304 182.2624187 104.54296875 181.65625 C122.05856573 176.97799834 136.7462192 154.3323729 146 140 C146.38961914 139.39897461 146.77923828 138.79794922 147.18066406 138.17871094 C157.7468178 122.6635113 157.7468178 122.6635113 160 105 C150.91456182 97.17642824 139.20291875 106.80066252 132 113 Z M228 152 C215.96289819 175.22074127 205.15924864 198.7661606 196.8125 223.5625 C196.57989471 224.24529022 196.34728943 224.92808044 196.1076355 225.63156128 C190.47709365 239.89398454 190.47709365 239.89398454 190.96411133 254.36157227 C191.47687622 255.17259399 191.47687622 255.17259399 192 256 C195.65523429 256.62216754 197.8215638 256.66991776 201.08203125 254.81640625 C219.2907599 240.08538073 231.31128967 211.24113332 234.75 188.625 C235.64666756 175.62332042 233.47461888 164.25089829 229 152 C228.67 152 228.34 152 228 152 Z " fill="#F6F6F6" transform="translate(392,494)"/>
<path d="M0 0 C14.19 0 28.38 0 43 0 C50.09594292 12.89384751 57.02742801 25.84497428 63.76586914 38.92871094 C68.0596818 47.24376991 72.47621983 55.4829732 77.00585938 63.671875 C80.15413018 69.37727614 83.12780593 75.15073055 86 81 C90.8041763 73.29438292 95.07313622 65.3469714 99.28970337 57.3119812 C101.26277428 53.55254431 103.24546051 49.79817776 105.2265625 46.04296875 C105.62621719 45.28478348 106.02587189 44.52659821 106.43763733 43.74543762 C110.36716101 36.29401926 114.33338319 28.86252714 118.3125 21.4375 C118.91570068 20.31037598 119.51890137 19.18325195 120.14038086 18.02197266 C123.3775954 11.98424873 126.67212549 5.99017412 130 0 C143.86 0 157.72 0 172 0 C172.02254499 22.66951234 172.04097799 45.33901565 172.05181217 68.00853634 C172.05697564 78.53360838 172.06401931 89.05867297 172.07543945 99.58374023 C172.08538473 108.75388597 172.09185305 117.92402632 172.09408849 127.09417731 C172.09539587 131.95285144 172.09848339 136.81151016 172.10573006 141.67017937 C172.11248782 146.23780574 172.11461746 150.80541026 172.11310768 155.37304115 C172.11338412 157.05451959 172.11539069 158.73599871 172.11920547 160.41747284 C172.12413892 162.70302014 172.1229996 164.98848358 172.12025452 167.27403259 C172.12163721 169.19735365 172.12163721 169.19735365 172.12304783 171.15952969 C172 174 172 174 171 175 C158.13 175 145.26 175 132 175 C131.67 141.01 131.34 107.02 131 72 C124.73 84.21 118.46 96.42 112 109 C108.16152034 115.9025292 104.33712353 122.77936434 100.37841797 129.60742188 C97.83102708 134.02903552 95.35936381 138.49368369 92.88818359 142.95825195 C90.75548998 146.7752348 88.58197686 150.47326654 86 154 C85.34 154 84.68 154 84 154 C73.83054012 135.92448813 63.76888578 117.79728326 53.98828125 99.5078125 C53.64654373 98.86892593 53.30480621 98.23003937 52.95271301 97.5717926 C51.26528514 94.41609984 49.5801329 91.25922325 47.89868164 88.1003418 C47.29016357 86.95992432 46.68164551 85.81950684 46.0546875 84.64453125 C45.51312012 83.62721924 44.97155273 82.60990723 44.41357422 81.56176758 C42.98017631 78.87960763 42.98017631 78.87960763 41 76 C40.67 108.67 40.34 141.34 40 175 C26.8 175 13.6 175 0 175 C0 117.25 0 59.5 0 0 Z " fill="#ADADAC" transform="translate(583,280)"/>
<path d="M0 0 C90.35792779 0 90.35792779 0 110 16 C121.30605205 27.43329058 126.22601072 41.44291247 126.4375 57.3125 C126.30782232 75.03102742 120.34457955 88.11024177 107.8203125 100.61328125 C104.10077076 103.76098209 100.09649504 106.37133181 96 109 C105.51470653 128.21315611 105.51470653 128.21315611 115.375 147.25 C118.50015575 153.14576092 121.60404479 159.05000231 124.625 165 C125.14006104 165.99821777 125.14006104 165.99821777 125.66552734 167.01660156 C127.1094031 169.8832636 128 171.74310883 128 175 C114.47 175 100.94 175 87 175 C84.8653125 170.71322266 84.8653125 170.71322266 82.6875 166.33984375 C81.28125995 163.5195265 79.8743052 160.69956686 78.46728516 157.87963867 C77.50267335 155.94543953 76.53878475 154.01087952 75.57568359 152.07592773 C68.14090332 137.12485244 68.14090332 137.12485244 60.28466797 122.39256287 C58 118.20888572 58 118.20888572 58 116 C52.06 116 46.12 116 40 116 C40 135.47 40 154.94 40 175 C26.8 175 13.6 175 0 175 C0 117.25 0 59.5 0 0 Z M40 36 C40 50.52 40 65.04 40 80 C43.58875 80.04125 47.1775 80.0825 50.875 80.125 C51.98472168 80.14320801 53.09444336 80.16141602 54.23779297 80.18017578 C63.56985158 80.23145992 72.26222636 79.57119702 80 74 C85.65508201 66.70792057 85.69622979 59.97141812 85 51 C83.59846534 45.54583499 80.70552317 42.2172763 76.171875 39.0078125 C68.49448146 35.44528097 60.79414457 35.75743373 52.5 35.875 C46.3125 35.936875 46.3125 35.936875 40 36 Z " fill="#ACADAC" transform="translate(272,280)"/>
<path d="M0 0 C0.76166977 0.00222061 1.52333954 0.00444122 2.30809021 0.00672913 C3.16890701 0.00680466 4.02972382 0.00688019 4.91662598 0.00695801 C5.8520372 0.01211929 6.78744843 0.01728058 7.75120544 0.02259827 C8.70422043 0.02401321 9.65723541 0.02542816 10.63912964 0.02688599 C13.69605085 0.032503 16.75289996 0.04505836 19.80979919 0.05775452 C21.87685543 0.06276733 23.94391281 0.06733061 26.01097107 0.07142639 C31.08977507 0.08247795 36.16852489 0.09975397 41.24729919 0.12025452 C68.5018693 82.61202272 68.5018693 82.61202272 79.88237 118.42996216 C80.32211151 119.81386391 80.32211151 119.81386391 80.77073669 121.22572327 C81.05632446 122.12483932 81.34191223 123.02395538 81.63615417 123.95031738 C83.75821987 130.61785444 85.92054859 137.27168043 88.09886169 143.92103577 C88.56484268 145.34515778 88.56484268 145.34515778 89.04023743 146.79804993 C90.50181122 151.26299466 91.96802757 155.72632307 93.44212341 160.18714905 C93.95026051 161.73641238 94.45824531 163.28572568 94.96604919 164.83509827 C95.19950043 165.53548721 95.43295166 166.23587616 95.67347717 166.95748901 C96.60453596 169.81034863 97.24729919 172.09642816 97.24729919 175.12025452 C83.05729919 175.12025452 68.86729919 175.12025452 54.24729919 175.12025452 C52.92729919 170.54150452 51.60729919 165.96275452 50.24729919 161.24525452 C49.82964294 159.80166565 49.41198669 158.35807678 48.98167419 156.8707428 C48.65683044 155.73878479 48.33198669 154.60682678 47.99729919 153.44056702 C47.49456482 151.69670715 47.49456482 151.69670715 46.98167419 149.9176178 C46.24729919 147.12025452 46.24729919 147.12025452 46.24729919 145.12025452 C28.42729919 145.12025452 10.60729919 145.12025452 -7.75270081 145.12025452 C-9.07270081 150.40025452 -10.39270081 155.68025452 -11.75270081 161.12025452 C-13.07270081 165.74025452 -14.39270081 170.36025452 -15.75270081 175.12025452 C-29.94270081 175.12025452 -44.13270081 175.12025452 -58.75270081 175.12025452 C-58.10403928 170.57962384 -57.61823592 167.21772384 -56.20899963 163.05091858 C-55.73545044 161.63549774 -55.73545044 161.63549774 -55.25233459 160.19148254 C-54.90827576 159.18313354 -54.56421692 158.17478455 -54.20973206 157.13587952 C-53.8501239 156.06549438 -53.49051575 154.99510925 -53.12001038 153.89228821 C-52.34525031 151.58793421 -51.56782591 149.28447463 -50.78800964 146.98182678 C-48.70126681 140.81862097 -46.63487154 134.64858455 -44.56520081 128.47962952 C-44.1486171 127.23979309 -43.73203339 125.99995667 -43.30282593 124.72254944 C-39.82867763 114.3747626 -36.42800149 104.00466405 -33.06520081 93.62025452 C-31.96442973 90.2267682 -30.86265331 86.83360896 -29.76051331 83.44056702 C-29.46669769 82.53599762 -29.17288208 81.63142822 -28.87016296 80.69944763 C-24.54394605 67.39007744 -20.19158436 54.08923572 -15.83145046 40.79094315 C-14.5048241 36.74474057 -13.17924437 32.69820277 -11.85636902 28.65077209 C-10.60554364 24.82392689 -9.35182936 20.99804043 -8.09589005 17.17287064 C-7.62682761 15.74259963 -7.15880877 14.31198593 -6.6918602 12.88102341 C-6.04917011 10.91214615 -5.4027656 8.94452761 -4.75538635 6.97718811 C-4.3912413 5.86556305 -4.02709625 4.75393799 -3.6519165 3.60862732 C-2.40757052 0.16518577 -2.40757052 0.16518577 0 0 Z M19.24729919 50.12025452 C14.57160574 64.95056156 9.97962878 79.79971867 5.68479919 94.74525452 C5.33868591 95.94118225 4.99257263 97.13710999 4.63597107 98.36927795 C4.32079529 99.47561584 4.00561951 100.58195374 3.68089294 101.72181702 C3.40301941 102.69457581 3.12514587 103.66733459 2.83885193 104.66957092 C2.12997735 107.18611721 2.12997735 107.18611721 2.24729919 110.12025452 C13.79729919 110.12025452 25.34729919 110.12025452 37.24729919 110.12025452 C36.27147888 106.7106842 35.29565857 103.30111389 34.29026794 99.78822327 C33.3368997 96.4553431 32.38376337 93.12239669 31.4306488 89.78944397 C30.77236223 87.48794243 30.11383774 85.18650892 29.45506287 82.88514709 C28.50365886 79.56135492 27.55313441 76.23731223 26.60276794 72.91322327 C26.31201889 71.89818222 26.02126984 70.88314117 25.72171021 69.83734131 C23.84755974 63.27806741 22.02715767 56.70573591 20.24729919 50.12025452 C19.91729919 50.12025452 19.58729919 50.12025452 19.24729919 50.12025452 Z " fill="#ACADAC" transform="translate(468.75270080566406,279.87974548339844)"/>
<path d="M0 0 C35.31 0 70.62 0 107 0 C107 11.88 107 23.76 107 36 C84.56 36 62.12 36 39 36 C39.33 46.56 39.66 57.12 40 68 C58.81 68.33 77.62 68.66 97 69 C97 80.55 97 92.1 97 104 C77.86 104 58.72 104 39 104 C39 115.22 39 126.44 39 138 C62.43 138 85.86 138 110 138 C110 150.21 110 162.42 110 175 C73.7 175 37.4 175 0 175 C0 117.25 0 59.5 0 0 Z " fill="#ACADAC" transform="translate(782,280)"/>
<path d="M0 0 C36.96 0 73.92 0 112 0 C112 11.88 112 23.76 112 36 C88.24 36 64.48 36 40 36 C40 47.55 40 59.1 40 71 C59.8 71 79.6 71 100 71 C101.55990427 74.11980855 101.12114247 77.42923221 101.09765625 80.8515625 C101.09664917 81.53758545 101.09564209 82.2236084 101.09460449 82.93041992 C101.08936889 85.49529693 101.07540763 88.06015013 101.0625 90.625 C101.041875 96.35875 101.02125 102.0925 101 108 C80.87 108 60.74 108 40 108 C40 130.11 40 152.22 40 175 C27.13 175 14.26 175 1 175 C-0.46822799 172.06354402 -0.12262765 169.47140925 -0.12025452 166.19174194 C-0.12110894 165.48357854 -0.12196337 164.77541513 -0.12284368 164.04579222 C-0.12449724 161.66119943 -0.11897913 159.27667621 -0.11352539 156.89208984 C-0.11324347 155.18738303 -0.11340136 153.4826761 -0.1139679 151.77796936 C-0.11425567 147.1397954 -0.10836223 142.50164712 -0.10139394 137.86347914 C-0.09515701 133.02012225 -0.09455633 128.17676482 -0.09336853 123.33340454 C-0.09025622 114.15718832 -0.08204417 104.98098396 -0.07201904 95.80477297 C-0.05876865 83.40822226 -0.05335719 71.01166831 -0.04751682 58.6151123 C-0.03810423 39.07673264 -0.01818463 19.53837802 0 0 Z " fill="#AEAFAE" transform="translate(139,280)"/>
<path d="M0 0 C35.31 0 70.62 0 107 0 C107 11.88 107 23.76 107 36 C84.56 36 62.12 36 39 36 C39 35.67 39 35.34 39 35 C60.78 34.67 82.56 34.34 105 34 C105 23.44 105 12.88 105 2 C71.01 2 37.02 2 2 2 C2 58.43 2 114.86 2 173 C1.34 173 0.68 173 0 173 C0 115.91 0 58.82 0 0 Z " fill="#BBBCBB" transform="translate(782,280)"/>
<path d="M0 0 C17.82 0 35.64 0 54 0 C54 0.33 54 0.66 54 1 C36.84 1 19.68 1 2 1 C2 57.76 2 114.52 2 173 C14.21 173 26.42 173 39 173 C39 154.52 39 136.04 39 117 C39.33 117 39.66 117 40 117 C40 136.14 40 155.28 40 175 C26.8 175 13.6 175 0 175 C0 117.25 0 59.5 0 0 Z " fill="#B6B6B5" transform="translate(272,280)"/>
<path d="M0 0 C0.33 0 0.66 0 1 0 C1 41.58 1 83.16 1 126 C0.01 125.67 -0.98 125.34 -2 125 C-2 87.71 -2 50.42 -2 12 C-1.67 12 -1.34 12 -1 12 C-0.67 8.04 -0.34 4.08 0 0 Z " fill="#9C9D9C" transform="translate(754,328)"/>
<path d="M0 0 C0.33 0 0.66 0 1 0 C1 16.17 1 32.34 1 49 C0.01 49.495 0.01 49.495 -1 50 C-1.33 37.46 -1.66 24.92 -2 12 C-1.67 12 -1.34 12 -1 12 C-0.67 8.04 -0.34 4.08 0 0 Z " fill="#999A99" transform="translate(754,328)"/>
<path d="M0 0 C0.33 0 0.66 0 1 0 C1 6.93 1 13.86 1 21 C0.34 21 -0.32 21 -1 21 C-1.33 21.99 -1.66 22.98 -2 24 C-2 20.04 -2 16.08 -2 12 C-1.67 12 -1.34 12 -1 12 C-0.67 8.04 -0.34 4.08 0 0 Z " fill="#797A79" transform="translate(754,328)"/>
<path d="M0 0 C2 2 2 2 2.13525391 3.87939453 C2.08288574 4.62302246 2.03051758 5.36665039 1.9765625 6.1328125 C1.89921875 7.34130859 1.89921875 7.34130859 1.8203125 8.57421875 C1.75585938 9.41597656 1.69140625 10.25773437 1.625 11.125 C1.56828125 11.97449219 1.5115625 12.82398438 1.453125 13.69921875 C1.31149023 15.8001345 1.15695674 17.90017334 1 20 C0.67 20 0.34 20 0 20 C-1.12517561 13.24894632 -1.68346268 6.73385072 0 0 Z " fill="#B8BBB8" transform="translate(249,286)"/>
<path d="M0 0 C3 3 3 3 3.07421875 5.04296875 C2.71614583 7.02864583 2.35807292 9.01432292 2 11 C1.34 10.67 0.68 10.34 0 10 C0 6.7 0 3.4 0 0 Z " fill="#D8D8D8" transform="translate(762,640)"/>
<path d="M0 0 C0.99 0.33 1.98 0.66 3 1 C2.21572648 2.64936913 1.42234741 4.29441127 0.625 5.9375 C0.18414063 6.85402344 -0.25671875 7.77054688 -0.7109375 8.71484375 C-2 11 -2 11 -4 12 C-2.66666667 8 -1.33333333 4 0 0 Z " fill="#E7E7E7" transform="translate(622,699)"/>
<path d="M0 0 C1 2 1 2 0.9375 4.375 C1.00402221 7.16893272 1.59276848 8.62529681 3 11 C1.0625 10.4375 1.0625 10.4375 -1 9 C-1.875 5.5 -1.875 5.5 -2 2 C-1.34 1.34 -0.68 0.68 0 0 Z " fill="#EDECEC" transform="translate(353,571)"/>
<path d="M0 0 C0.71484375 1.734375 0.71484375 1.734375 1 4 C-0.43359375 6.140625 -0.43359375 6.140625 -2.4375 8.25 C-3.09621094 8.95640625 -3.75492188 9.6628125 -4.43359375 10.390625 C-4.95050781 10.92171875 -5.46742188 11.4528125 -6 12 C-6 8.36804504 -5.04546845 7.25286089 -3 4.3125 C-2.443125 3.50425781 -1.88625 2.69601562 -1.3125 1.86328125 C-0.879375 1.24839844 -0.44625 0.63351562 0 0 Z " fill="#DADADA" transform="translate(750,518)"/>
<path d="M0 0 C0.66 0 1.32 0 2 0 C3.25541557 3.76624671 2.37061958 5.37188934 1 9 C0.34 8.67 -0.32 8.34 -1 8 C-0.67 5.36 -0.34 2.72 0 0 Z " fill="#D3D3D2" transform="translate(402,580)"/>
<path d="M0 0 C0.66 0.33 1.32 0.66 2 1 C0.52307692 6.66153846 0.52307692 6.66153846 -2.125 8.375 C-2.74375 8.58125 -3.3625 8.7875 -4 9 C-2.80100302 5.9168649 -1.52299523 2.93720508 0 0 Z " fill="#E5E4E4" transform="translate(633,574)"/>
</svg>
